<svg xmlns="http://www.w3.org/2000/svg" xmlns:xlink="http://www.w3.org/1999/xlink" width="47" height="47" viewBox="0 0 47 47"><defs><path id="ghh9a" d="M341.39 5667c12.902 0 23.36 10.521 23.36 23.5s-10.458 23.5-23.36 23.5c-12.9 0-23.359-10.521-23.359-23.5s10.459-23.5 23.36-23.5z"/><path id="ghh9b" d="M343.21 5700v-9h2.738l.448-4h-3.186v-1.949c0-1.03.026-2.051 1.468-2.051h1.462v-2.86c0-.043-1.255-.14-2.525-.14-2.651 0-4.311 1.657-4.311 4.7v2.3h-2.93v4h2.93v9z"/></defs><g><g transform="translate(-318 -5667)"><use fill="#fff" xlink:href="#ghh9a"/></g><g transform="translate(-318 -5667)"><use fill="#2376cf" xlink:href="#ghh9b"/></g></g></svg>