<svg xmlns="http://www.w3.org/2000/svg" xmlns:xlink="http://www.w3.org/1999/xlink" width="2508" height="2508" viewBox="0 0 2508 2508"><defs><path id="c2rsa" d="M991 4792c692.565 0 1254 561.435 1254 1254S1683.565 7300 991 7300-263 6738.565-263 6046 298.435 4792 991 4792z"/><path id="c2rsc" d="M-145 3076c692.565 0 1254 561.435 1254 1254S547.565 5584-145 5584s-1254-561.435-1254-1254 561.435-1254 1254-1254z"/><path id="c2rse" d="M2714 4869c692.565 0 1254 561.435 1254 1254s-561.435 1254-1254 1254-1254-561.435-1254-1254 561.435-1254 1254-1254z"/><linearGradient id="c2rsd" x1="-435" x2="145" y1="5584" y2="3076" gradientUnits="userSpaceOnUse"><stop offset="0" stop-color="#2376cf"/><stop offset="1" stop-color="#a6e1f9"/></linearGradient><linearGradient id="c2rsf" x1="1460" x2="3968" y1="6937" y2="5309" gradientUnits="userSpaceOnUse"><stop offset="0" stop-color="#2376cf"/><stop offset="1" stop-color="#a6e1f9"/></linearGradient><clipPath id="c2rsb"><use xlink:href="#c2rsa"/></clipPath></defs><g><g transform="translate(263 -4792)"><use fill="#1955a3" xlink:href="#c2rsa"/></g><g clip-path="url(#c2rsb)" opacity=".2" transform="translate(263 -4792)"><use fill="#a6e1f9" xlink:href="#c2rsc"/><use fill="url(#c2rsd)" xlink:href="#c2rsc"/></g><g clip-path="url(#c2rsb)" opacity=".2" transform="translate(263 -4792)"><use fill="#a6e1f9" xlink:href="#c2rse"/><use fill="url(#c2rsf)" xlink:href="#c2rse"/></g></g></svg>