<svg xmlns="http://www.w3.org/2000/svg" xmlns:xlink="http://www.w3.org/1999/xlink" width="47" height="47" viewBox="0 0 47 47"><defs><path id="d3dka" d="M285.36 5667c12.9 0 23.359 10.521 23.359 23.5s-10.459 23.5-23.36 23.5c-12.9 0-23.359-10.521-23.359-23.5s10.458-23.5 23.36-23.5z"/><path id="d3dkb" d="M282.327 5690.67c0-1.863 1.475-3.373 3.296-3.373 1.82 0 3.297 1.51 3.297 3.372 0 1.862-1.476 3.373-3.297 3.373-1.82 0-3.296-1.51-3.296-3.373 0-1.862 0 0 0 0zm-1.782 0c0 2.868 2.273 5.194 5.078 5.194s5.079-2.326 5.079-5.195-2.274-5.194-5.079-5.194c-2.805 0-5.078 2.325-5.078 5.194 0 2.87 0 0 0 0zm9.17-5.401c0 .67.532 1.214 1.188 1.214.655 0 1.187-.544 1.187-1.214 0-.67-.531-1.214-1.187-1.214s-1.187.543-1.187 1.214c0 .67 0 0 0 0zm-8.103 13.634c-8.518-.4-.395-.018 0 0zm-1.822-.347a3.275 3.275 0 0 1-1.877-1.92c-.588-1.541-.393-8.87-.34-10.055.052-1.162.28-2.223 1.08-3.043.989-1.011 2.267-1.507 10.967-1.105 1.135.054 2.173.288 2.974 1.105.99 1.011 1.48 2.333 1.08 11.22-.044.986-.205 1.522-.34 1.878-.895 2.353-2.954 2.68-11.707 2.268h-.015c-.954-.046-1.475-.21-1.822-.348zm-2.397-16.306c-1.136 1.162-1.527 2.607-1.6 4.249-.046 1.025-.312 8.767.46 10.797a5.081 5.081 0 0 0 2.892 2.96c.63.249 1.348.42 2.4.47 8.807.408 12.072.185 13.449-3.43.244-.643.412-1.379.46-2.456.401-9.055-.066-11.018-1.601-12.59-1.218-1.245-2.65-2.092-12.307-1.637h-.007c-1.615.077-3.015.483-4.146 1.637zm4.146-1.636c-.277.013-9.503.449 0 0z"/></defs><g><g transform="translate(-262 -5667)"><use fill="#fff" xlink:href="#d3dka"/></g><g transform="translate(-262 -5667)"><use fill="#2376cf" xlink:href="#d3dkb"/></g></g></svg>