<svg xmlns="http://www.w3.org/2000/svg" xmlns:xlink="http://www.w3.org/1999/xlink" width="47" height="47" viewBox="0 0 47 47"><defs><path id="phqra" d="M396.656 5667c12.893 0 23.344 10.521 23.344 23.5s-10.451 23.5-23.344 23.5c-12.892 0-23.344-10.521-23.344-23.5s10.452-23.5 23.344-23.5z"/><path id="phqrb" d="M393.026 5699.26c7.53 0 11.65-6.356 11.65-11.868 0-.18 0-.361-.012-.54a8.417 8.417 0 0 0 2.043-2.16 8.058 8.058 0 0 1-2.352.658 4.176 4.176 0 0 0 1.8-2.308 8.115 8.115 0 0 1-2.6 1.013 4.046 4.046 0 0 0-5.793-.181 4.225 4.225 0 0 0-1.185 3.985c-3.292-.168-6.36-1.752-8.439-4.358-1.087 1.906-.532 4.344 1.268 5.569-.652-.02-1.29-.2-1.859-.522v.052c0 1.986 1.375 3.696 3.286 4.09a4.02 4.02 0 0 1-1.85.071c.537 1.7 2.074 2.863 3.826 2.897a8.122 8.122 0 0 1-6.06 1.729 11.437 11.437 0 0 0 6.277 1.87"/></defs><g><g transform="translate(-373 -5667)"><use fill="#fff" xlink:href="#phqra"/></g><g transform="translate(-373 -5667)"><use fill="#2376cf" xlink:href="#phqrb"/></g></g></svg>