<svg xmlns="http://www.w3.org/2000/svg" xmlns:xlink="http://www.w3.org/1999/xlink" width="1454" height="735" viewBox="0 0 1454 735"><defs><path id="flnma" d="M259 4570c0-11.046 8.954-20 20-20h1361c11.046 0 20 8.954 20 20v625c0 11.046-8.954 20-20 20H279c-11.046 0-20-8.954-20-20z"/><path id="flnme" d="M730.717 5313.214s507.464-636.978 171.186-734.632c-336.278-97.655-726.014-230.414-557.579 61.117 168.436 291.53 95.892 359.428-8.559 415.6-104.45 56.17-218.874 123.457-218.874 123.457L112 5389z"/><path id="flnmf" d="M1608.5 4468c98.583 0 178.5 79.917 178.5 178.5s-79.917 178.5-178.5 178.5-178.5-79.917-178.5-178.5 79.917-178.5 178.5-178.5z"/><mask id="flnmc" width="2" height="2" x="-1" y="-1"><path fill="#fff" d="M259 4550h1401v665H259z"/><use xlink:href="#flnma"/></mask><filter id="flnmb" width="1491" height="797" x="214" y="4505" filterUnits="userSpaceOnUse"><feOffset dy="42" in="SourceGraphic" result="FeOffset1023Out"/><feGaussianBlur in="FeOffset1023Out" result="FeGaussianBlur1024Out" stdDeviation="14 14"/></filter><clipPath id="flnmd"><use xlink:href="#flnma"/></clipPath></defs><g><g transform="translate(-234 -4550)"><g filter="url(#flnmb)"><use fill="none" stroke-opacity=".15" stroke-width="0" mask="url(&quot;#flnmc&quot;)" xlink:href="#flnma"/><use fill="#1f6ee3" fill-opacity=".15" xlink:href="#flnma"/></g><use fill="#3072c0" xlink:href="#flnma"/></g><g clip-path="url(#flnmd)" opacity=".3" transform="translate(-234 -4550)"><use fill="#428ce5" xlink:href="#flnme"/></g><g clip-path="url(#flnmd)" transform="translate(-234 -4550)"><use fill="#3f80cc" xlink:href="#flnmf"/></g></g></svg>